<svg width="20" height="20" viewBox="0 0 20 20" fill="none" xmlns="http://www.w3.org/2000/svg">
<path d="M9.075 2.1875C9.02812 2.075 8.91875 2 8.79688 2H8.20312C8.08125 2 7.96875 2.075 7.925 2.1875L7.27813 3.80313C7.17813 4.05312 6.82187 4.05312 6.72187 3.80313L6.075 2.1875C6.02813 2.075 5.91875 2 5.79688 2H5.5C4.67188 2 4 2.67188 4 3.5V9V9.7V10H4.3H15.7H16V9.7V9V3.5C16 2.67188 15.3281 2 14.5 2H11.2031C11.0813 2 10.9688 2.075 10.925 2.1875L10.2781 3.80313C10.1781 4.05312 9.82188 4.05312 9.72188 3.80313L9.075 2.1875ZM4 11V12C4 13.1031 4.89688 14 6 14H8V16C8 17.1031 8.89687 18 10 18C11.1031 18 12 17.1031 12 16V14H14C15.1031 14 16 13.1031 16 12V11H4ZM10 15.5C10.1326 15.5 10.2598 15.5527 10.3536 15.6464C10.4473 15.7402 10.5 15.8674 10.5 16C10.5 16.1326 10.4473 16.2598 10.3536 16.3536C10.2598 16.4473 10.1326 16.5 10 16.5C9.86739 16.5 9.74021 16.4473 9.64645 16.3536C9.55268 16.2598 9.5 16.1326 9.5 16C9.5 15.8674 9.55268 15.7402 9.64645 15.6464C9.74021 15.5527 9.86739 15.5 10 15.5Z" fill="white"/>
</svg>
