<svg width="20" height="20" viewBox="0 0 20 20" fill="none" xmlns="http://www.w3.org/2000/svg">
<path d="M2.29374 2.2937C2.68436 1.90308 3.31561 1.90308 3.70624 2.2937L6.24999 4.83433L7.90936 3.17495C8.78749 2.29683 10.2125 2.29683 11.0906 3.17495L15.8219 7.90933C16.7 8.78745 16.7 10.2125 15.8219 11.0906L9.87186 17.0437C8.69999 18.2156 6.79999 18.2156 5.62811 17.0437L1.95624 13.3718C0.784363 12.2 0.784363 10.3 1.95624 9.12808L4.83436 6.24995L2.29374 3.7062C1.90311 3.31558 1.90311 2.6812 2.29374 2.29058V2.2937ZM7.79374 9.20933L6.24999 7.66558L3.37186 10.5437C3.24061 10.675 3.15311 10.8343 3.10936 11H13.0844L14.4062 9.67808C14.5031 9.5812 14.5031 9.42183 14.4062 9.32495L9.67811 4.59058C9.58124 4.4937 9.42186 4.4937 9.32499 4.59058L7.66561 6.24995L9.20936 7.7937C9.59999 8.18433 9.59999 8.8187 9.20936 9.20933C8.81874 9.59995 8.18436 9.59995 7.79374 9.20933ZM17 18C15.8969 18 15 17.1031 15 16C15 15.2125 16.0187 13.5125 16.6 12.6031C16.7875 12.3093 17.2094 12.3093 17.3969 12.6031C17.9812 13.5125 19 15.2125 19 16C19 17.1031 18.1031 18 17 18Z" fill="white"/>
</svg>
